<svg xmlns="http://www.w3.org/2000/svg" x="0px" y="0px" class="iconic bravery-logo" width="300" height="58" viewBox="0 0 300 58">
<g class="bravery-text">
	<path class="letter-b svg-primary" d="M98.9,40.7h-9.5V17.2h9.1c4.6,0,7.4,2.2,7.4,6.3c0,2.6-1.3,4.4-3.2,5.1v0.1c2.3,0.7,3.9,2.5,3.9,5.4
		C106.5,38.7,103.4,40.7,98.9,40.7z M98.5,19.8h-6.3v7.8h6.3c2.8,0,4.6-1.5,4.6-3.9C103.1,20.9,101.4,19.8,98.5,19.8z M92.1,30.1
		v8.1H99c2.6,0,4.7-1.3,4.7-4.1c0-2.6-2.2-4-4.8-4H92.1z"/>
	<path class="letter-r svg-primary" d="M131.2,17.2c5.1,0,8.2,2.7,8.2,7.8c0,3.8-1.9,6.3-4.7,7.3v0.2l5.2,7.5v0.7H137l-5.5-7.8h-6.1v7.8h-2.7V17.2
		H131.2z M131.2,19.8h-5.7v10.6h5.9c3.1,0,5.2-1.6,5.2-5.2C136.6,21.5,134.5,19.8,131.2,19.8z"/>
	<path class="letter-a svg-primary" d="M173.9,40.7h-2.8l-2-5.2h-11.3l-2,5.2H153l9.2-23.5h2.4L173.9,40.7z M158.8,33h9.3l-4.7-12.2L158.8,33z"/>
	<path class="letter-v svg-primary" d="M184.3,17.2h2.8l7.6,20l7.7-20h2.8L196,40.7h-2.4L184.3,17.2z"/>
	<path class="letter-e svg-primary" d="M233.3,30.1h-10.5v8.1h12.4v2.5H220V17.2h15.1v2.5h-12.4v7.8h10.5V30.1z"/>
	<path class="letter-r svg-primary" d="M259.6,17.2c5.1,0,8.2,2.7,8.2,7.8c0,3.8-1.9,6.3-4.7,7.3v0.2l5.2,7.5v0.7h-2.9l-5.5-7.8h-6.1v7.8h-2.7
		V17.2H259.6z M259.6,19.8h-5.7v10.6h5.9c3.1,0,5.2-1.6,5.2-5.2C265,21.5,262.9,19.8,259.6,19.8z"/>
	<path class="letter-y svg-primary" d="M296.2,17.2h3.1l-7.8,14.4v9h-2.7v-9.1l-7.8-14.4h3.2l5.4,10.5l0.7,1.5h0l0.7-1.5L296.2,17.2z"/>
</g>
<g class="bravery-mark">
	<g class="bravery-diamond">
		<polygon class="diamond-top svg-property-accent" points="21.3,19.5 37.2,3.5 53.2,19.5 56.7,19.5 37.2,0 17.8,19.5 		"/>
		<polygon class="diamond-bottom svg-property-accent" points="63.1,25.8 59.5,25.8 62.7,29 37.2,54.4 11.8,29 15,25.8 11.4,25.8 8.3,29 37.2,57.9 66.2,29
					"/>
	</g>
	<g class="bravery-bird">
		<path class="bravery-wings svg-primary" d="M49.1,23.9h23.4l1.3-2.5l-26.2,0l0,0h-1.9l-8.5,17.1l-8.5-17.1h-1.9l0,0l-26.2,0L2,23.9h23.4c0,0,1.8,0,2.7,1.9l0.9,1.9
			l-14.3,0v0l2.5,2.5h11.3c0,0,1.8,0,2.7,1.9l0.9,1.9l-9.2,0l2.6,2.6h6.2c0,0,1.7,0,2.7,1.9h0l2.9,5.8l2.9-5.8h0
			c0.9-1.9,2.7-1.9,2.7-1.9H49l2.6-2.6l-9.2,0l0.9-1.9c0.9-1.9,2.7-1.9,2.7-1.9h11.3l2.5-2.5v0l-14.3,0l0.9-1.9
			C47.3,23.9,49.1,23.9,49.1,23.9z"/>
		<path class="bravery-point svg-property-accent" d="M37.2,24.3c1.9,0,3.5,0.5,4.2,0.7c0.2,0.1,0.3,0.1,0.5,0.2l-4.7-9.3l-4.7,9.3c0.2-0.1,0.3-0.1,0.5-0.2
			C33.8,24.8,35.3,24.4,37.2,24.3z"/>
	</g>
</g>
</svg>
