<?xml version="1.0" encoding="utf-8"?>
<!-- Generator: Adobe Illustrator 19.1.0, SVG Export Plug-In . SVG Version: 6.00 Build 0)  -->
<svg version="1.1" id="Layer_1" xmlns="http://www.w3.org/2000/svg" xmlns:xlink="http://www.w3.org/1999/xlink" x="0px" y="0px"
	 viewBox="0 0 223.3 120" style="enable-background:new 0 0 223.3 120;" xml:space="preserve">
<style type="text/css">
	.st0{fill:#343434;}
</style>
<g>
	<g>
		<path class="st0" d="M147.8,25.2h71.6l3.9-7.7l-80.1-0.1l0,0h-5.7l-25.9,52.2L85.7,17.3h-5.7l0,0L0,17.5l3.9,7.7h71.6
			c0,0,5.4,0,8.2,5.7l2.9,5.7l-43.7,0.1v0l7.8,7.8h34.5c0,0,5.4,0,8.2,5.7l2.9,5.7l-28.2,0l7.8,7.8h18.9c0,0,5.3,0,8.2,5.7h0
			l8.8,17.6l8.8-17.6h0c2.9-5.7,8.2-5.7,8.2-5.7h18.9l7.8-7.8l-28.2,0l2.9-5.7c2.9-5.7,8.2-5.7,8.2-5.7h34.5l7.8-7.8v0l-43.7-0.1
			l2.9-5.7C142.5,25.2,147.8,25.2,147.8,25.2z"/>
	</g>
	<path class="st0" d="M111.7,26.4c5.8,0.1,10.6,1.5,12.9,2.3c0.5,0.2,1,0.3,1.4,0.6L111.7,0.7L97.4,29.3c0.5-0.2,1-0.4,1.4-0.6
		C101.1,27.9,105.8,26.5,111.7,26.4z"/>
	<g>
		<path class="st0" d="M30.4,119.3H23v-17.7h7.2c3.6,0,5.6,1.7,5.6,4.8c0,1.8-0.9,3.1-2.2,3.8v0.1c1.6,0.5,2.7,1.9,2.7,3.9
			C36.2,117.6,34,119.3,30.4,119.3z M30.1,104.2h-4.2v4.9H30c1.6,0,2.7-1,2.7-2.4C32.7,105.1,31.7,104.2,30.1,104.2z M25.9,111.6
			v5.1h4.5c1.6,0,2.7-0.9,2.7-2.6c0-1.5-1.1-2.5-2.5-2.5H25.9z"/>
		<path class="st0" d="M57.7,101.6c3.8,0,6.2,2.2,6.2,5.9c0,2.7-1.3,4.5-3.3,5.4v0.2l3.8,5.7v0.4h-3.2l-3.8-5.8h-3.5v5.8H51v-17.7
			H57.7z M57.6,104.2h-3.7v6.7h3.8c1.9,0,3.2-1.1,3.2-3.3C60.9,105.3,59.6,104.2,57.6,104.2z"/>
		<path class="st0" d="M93,119.3h-3.1l-1.3-3.6h-7.5l-1.3,3.6h-3.1l6.6-17.7h2.9L93,119.3z M82.1,113.2h5.7l-2.9-8.2L82.1,113.2z"/>
		<path class="st0" d="M103.5,101.6h3.1l5,14.2l5-14.2h3.1l-6.6,17.7h-2.9L103.5,101.6z"/>
		<path class="st0" d="M143.6,111.6h-7.3v5.1h8.7v2.6h-11.6v-17.7H145v2.6h-8.7v4.9h7.3V111.6z"/>
		<path class="st0" d="M166.4,101.6c3.8,0,6.2,2.2,6.2,5.9c0,2.7-1.3,4.5-3.3,5.4v0.2l3.8,5.7v0.4h-3.2l-3.8-5.8h-3.5v5.8h-2.9
			v-17.7H166.4z M166.3,104.2h-3.7v6.7h3.8c1.9,0,3.2-1.1,3.2-3.3C169.6,105.3,168.3,104.2,166.3,104.2z"/>
		<path class="st0" d="M196.4,101.6h3.2l-5.8,10.8v6.9h-2.9v-6.9l-5.8-10.8h3.2l3.4,6.9l0.6,1.4l0.6-1.4L196.4,101.6z"/>
	</g>
</g>
</svg>
