<?xml version="1.0" encoding="utf-8"?>
<!-- Generator: Adobe Illustrator 17.1.0, SVG Export Plug-In . SVG Version: 6.00 Build 0)  -->
<!DOCTYPE svg PUBLIC "-//W3C//DTD SVG 1.1//EN" "http://www.w3.org/Graphics/SVG/1.1/DTD/svg11.dtd">
<svg version="1.1" xmlns="http://www.w3.org/2000/svg" xmlns:xlink="http://www.w3.org/1999/xlink" x="0px" y="0px"
	 viewBox="0 0 937 577" enable-background="new 0 0 937 577" xml:space="preserve">
<g id="Layer_1" display="none">
	<rect x="659" y="-213" display="inline" fill="#C0C0BF" width="54" height="54"/>
	<rect x="728" y="-213" display="inline" fill="#5FB780" width="54" height="54"/>
	<rect x="796" y="-213" display="inline" fill="#393939" width="54" height="54"/>
	<g display="inline">
		<path d="M421.3,480.5H288.1L468.8,66.2l180.1,414.3H515.7l-46.9-126.2L421.3,480.5z"/>
	</g>
	<g display="inline">
		<path fill="#5FB780" d="M515.7,88.9h133.2L468.2,503.1L288.1,88.9h133.2L468.2,215L515.7,88.9z"/>
	</g>
	<g display="inline">
		<path d="M48.9,378H0V198h44.4c29.7,0,53.6,24.2,53.6,53.6c0,13.7-5,25.7-15.5,34.2c13.4,8.4,20.5,22.3,20.5,38.1
			C103,353.8,78.6,378,48.9,378z M44.4,233.8h-8.7v36h8.7c10,0,18.1-8.1,18.1-18.1C62.5,241.9,54.4,233.8,44.4,233.8z M48.9,305.2
			H35.7v37h13.1c10.2,0,18.4-8.1,18.4-18.4C67.3,313.6,59.1,305.2,48.9,305.2z"/>
		<path d="M158,264.7c0-36.8,30-66.7,66.7-66.7h45.5v180h-35.7v-46.5L193.8,378h-47.6l47.6-54.4C172,312.3,158,289.4,158,264.7z
			 M193.8,264.7c0,17.1,13.9,31,31,31h9.7v-62h-9.7C207.7,233.7,193.8,247.7,193.8,264.7z"/>
		<path d="M742.7,323.6l47.6,54.4h-47.6L702,331.5V378h-35.7V198h45.5c36.8,0,66.7,30,66.7,66.7
			C778.5,289.4,764.5,312.3,742.7,323.6z M711.7,233.7H702v62h9.7c17.1,0,31-13.9,31-31C742.7,247.7,728.8,233.7,711.7,233.7z"/>
		<path d="M875.3,300v78.5h-35.6V300l-61.7-102h42.2l37.4,62.2l37.2-62.2H937L875.3,300z"/>
	</g>
	<text transform="matrix(1 0 0 1 383 871)" font-family="'MostraNuova-Heavy'" font-size="72">BRRY</text>
</g>
<g id="Layer_1_copy">
	<rect x="659" y="-213" display="none" fill="#C0C0BF" width="54" height="54"/>
	<rect x="728" y="-213" display="none" fill="#5FB780" width="54" height="54"/>
	<rect x="796" y="-213" display="none" fill="#393939" width="54" height="54"/>
	<g>
		<g>
			<path fill="#393939" d="M46,373.2H0V203.8h41.8c27.9,0,50.4,22.7,50.4,50.4c0,12.9-4.7,24.2-14.6,32.1
				c12.6,7.9,19.3,21,19.3,35.8C96.9,350.4,73.9,373.2,46,373.2z M41.8,237.5h-8.2v33.9h8.2c9.4,0,17.1-7.7,17.1-17.1
				C58.8,245.1,51.2,237.5,41.8,237.5z M46,304.7H33.6v34.9H46c9.6,0,17.3-7.7,17.3-17.3C63.3,312.6,55.6,304.7,46,304.7z"/>
			<path fill="#393939" d="M164.6,266.6c0-34.6,28.2-62.8,62.8-62.8h42.8v169.3h-33.6v-43.8l-38.3,43.8h-44.7l44.7-51.2
				C177.7,311.4,164.6,289.9,164.6,266.6z M198.2,266.6c0,16.1,13.1,29.2,29.2,29.2h9.1v-58.3h-9.1
				C211.3,237.5,198.2,250.6,198.2,266.6z"/>
			<path fill="#393939" d="M738,322l44.7,51.2H738l-38.3-43.8v43.8h-33.6V203.8h42.8c34.6,0,62.8,28.2,62.8,62.8
				C771.7,289.9,758.6,311.4,738,322z M708.9,237.5h-9.1v58.3h9.1c16.1,0,29.2-13.1,29.2-29.2C738,250.6,724.9,237.5,708.9,237.5z"
				/>
			<path fill="#393939" d="M879.2,299.5v73.7h-33.4v-73.7l-57.8-95.7h39.6l35.1,58.3l34.9-58.3H937L879.2,299.5z"/>
			<g>
				<path fill="#393939" d="M385.1,507.3h-96.9L468.1,38.6l180.6,468.8h-96.9l-83.7-220.4L385.1,507.3z"/>
			</g>
		</g>
		<g>
			<path fill="#5FB780" d="M551.4,55.1H648L468.8,521.9L288.9,55.1h96.5l83.3,219.5L551.4,55.1z"/>
		</g>
	</g>
</g>
</svg>
